<svg width="100" height="28" viewBox="0 0 100 28" fill="none" xmlns="http://www.w3.org/2000/svg">
<path fill-rule="evenodd" clip-rule="evenodd" d="M11.399 25.9067C7.11383 21.7616 4.97121 19.689 4.97111 19.6891L0.780151 23.8342C0.34903 24.4027 0.460425 25.2131 1.02896 25.6442C1.25356 25.8145 1.5277 25.9067 1.80957 25.9067C1.81661 25.9067 1.82364 25.9067 1.83067 25.9067C5.0201 25.9067 8.20954 25.9067 11.399 25.9067Z" fill="#FF4F12"/>
<path fill-rule="evenodd" clip-rule="evenodd" d="M15.544 9.32642L6.21762 0L1.01051 5.42407C0.362091 6.09951 0 6.99954 0 7.93584L0 23.8342C0 24.9788 0.927907 25.9067 2.07254 25.9067C1.3634 25.9067 0.788535 25.3319 0.788535 24.6227C0.788535 24.2813 0.924485 23.954 1.16634 23.7131" fill="#7B61FF"/>
<path fill-rule="evenodd" clip-rule="evenodd" d="M82.0067 16.1524H79.764L77.0849 18.8617V16.1524H75.1883V23.6179H77.0849V20.5324L79.8092 23.6179H82.0971L78.575 19.6142L82.0067 16.1524Z" fill="#09121F"/>
<path fill-rule="evenodd" clip-rule="evenodd" d="M21.8248 18.0905H19.0853V14.7792H21.8248C23.2094 14.7792 23.8417 15.4414 23.8417 16.4348C23.8417 17.4282 23.2094 18.0905 21.8248 18.0905ZM21.8849 13.0031H17.0986V23.5391H19.0853V19.8665H21.8849C24.2631 19.8665 25.8285 18.6474 25.8285 16.4348C25.8285 14.2222 24.2631 13.0031 21.8849 13.0031Z" fill="#09121F"/>
<path fill-rule="evenodd" clip-rule="evenodd" d="M30.3131 22.0526C29.1994 22.0526 28.1607 21.2548 28.1607 19.8851C28.1607 18.5155 29.1994 17.7178 30.3131 17.7178C31.4269 17.7178 32.4654 18.5155 32.4654 19.8851C32.4654 21.2548 31.4269 22.0526 30.3131 22.0526ZM30.3131 15.9416C28.2661 15.9416 26.2341 17.2663 26.2341 19.8851C26.2341 22.5042 28.2661 23.8286 30.3131 23.8286C32.3602 23.8286 34.3921 22.5042 34.3921 19.8851C34.3921 17.2663 32.3602 15.9416 30.3131 15.9416Z" fill="#09121F"/>
<path fill-rule="evenodd" clip-rule="evenodd" d="M39.234 22.0526C38.09 22.0526 37.2472 21.2247 37.2472 19.8851C37.2472 18.5606 38.1201 17.7178 39.234 17.7178C39.9113 17.7178 40.4983 18.0339 40.9649 18.7413L42.5904 17.808C42.0486 16.6489 40.8745 15.9416 39.249 15.9416C37.1267 15.9416 35.3205 17.507 35.3205 19.8851C35.3205 22.2632 37.0365 23.8286 39.249 23.8286C40.8444 23.8286 41.913 23.1063 42.6657 21.8269L41.1003 20.969C40.6488 21.6011 40.1671 22.0526 39.234 22.0526Z" fill="#09121F"/>
<path fill-rule="evenodd" clip-rule="evenodd" d="M59.4268 20.382C59.3366 21.5258 59.1105 21.7818 58.7191 21.7818C58.4518 21.7818 58.3261 21.7521 58.143 21.7042L58.1525 23.6362C58.1525 23.6362 58.3883 23.7082 58.8248 23.7082C60.4352 23.7082 61.0373 22.6697 61.1879 20.4572L61.3685 17.8533H63.5057V23.6029H65.4023V16.1525H59.7428L59.4268 20.382Z" fill="#09121F"/>
<path fill-rule="evenodd" clip-rule="evenodd" d="M51.9704 18.8918C52.2413 18.049 52.9939 17.3866 53.9873 17.3866C55.041 17.3866 55.7484 17.9586 55.929 18.8918H51.9704ZM54.0476 15.9417C51.8802 15.9417 50.1191 17.5221 50.1191 19.8851C50.1191 22.2483 51.8802 23.8287 53.9572 23.8287C55.5979 23.8287 56.6364 23.2116 57.3889 21.9322L55.8837 21.1797C55.4172 21.7667 54.9957 22.203 53.9873 22.203C52.8736 22.203 52.0607 21.4807 51.9403 20.3368H57.69V19.6745C57.69 17.492 56.1849 15.9417 54.0476 15.9417Z" fill="#09121F"/>
<path fill-rule="evenodd" clip-rule="evenodd" d="M68.3153 18.8918C68.5862 18.049 69.3387 17.3866 70.3321 17.3866C71.3857 17.3866 72.0931 17.9586 72.2738 18.8918H68.3153ZM70.3924 15.9417C68.2249 15.9417 66.4639 17.5221 66.4639 19.8851C66.4639 22.2483 68.2249 23.8287 70.3021 23.8287C71.9426 23.8287 72.9811 23.2116 73.7338 21.9322L72.2287 21.1797C71.762 21.7667 71.3406 22.203 70.3321 22.203C69.2183 22.203 68.4055 21.4807 68.2852 20.3368H74.0348V19.6745C74.0348 17.492 72.5296 15.9417 70.3924 15.9417Z" fill="#09121F"/>
<path fill-rule="evenodd" clip-rule="evenodd" d="M43.2556 17.808H45.4833V23.6179H47.3796V17.808H49.6074V16.1524H43.2556V17.808Z" fill="#09121F"/>
<path fill-rule="evenodd" clip-rule="evenodd" d="M85.8623 22.0526C84.7484 22.0526 83.7099 21.2549 83.7099 19.8851C83.7099 18.5155 84.7484 17.7179 85.8623 17.7179C86.9761 17.7179 88.0146 18.5155 88.0146 19.8851C88.0146 21.2549 86.9761 22.0526 85.8623 22.0526ZM85.8623 15.9417C83.8153 15.9417 81.7833 17.2662 81.7833 19.8851C81.7833 22.5042 83.8153 23.8287 85.8623 23.8287C87.9092 23.8287 89.9413 22.5042 89.9413 19.8851C89.9413 17.2662 87.9092 15.9417 85.8623 15.9417Z" fill="#09121F"/>
<path fill-rule="evenodd" clip-rule="evenodd" d="M97.4874 16.151L95.4291 21.3794L93.3707 16.151H90.8919V23.603H92.6946V18.8853L94.6929 23.603H96.1653L98.1634 18.8853V23.603H99.9663V16.151H97.4874Z" fill="#09121F"/>
</svg>
