<svg width="48" height="48" viewBox="0 0 48 48" fill="none" xmlns="http://www.w3.org/2000/svg">
<path fill-rule="evenodd" clip-rule="evenodd" d="M8 4C5.79086 4 4 5.79086 4 8V40C4 42.2091 5.79086 44 8 44H40C42.2091 44 44 42.2091 44 40V8C44 5.79086 42.2091 4 40 4H8ZM17.5981 16.0443C17.5981 14.0817 16.0041 12.4877 14.0415 12.4877C12.0789 12.4877 10.4849 14.0817 10.4849 16.0443C10.4849 18.0069 12.0789 19.6009 14.0415 19.6009C16.0041 19.6009 17.5981 18.0069 17.5981 16.0443ZM37.2838 32.402C37.2838 33.599 36.3068 34.5703 35.1013 34.5703H12.8987C11.6932 34.5703 10.7162 33.599 10.7162 32.402C10.7162 31.9421 10.859 31.5164 11.1047 31.1679H11.1018L14.5299 25.7058C14.9127 25.1202 15.5755 24.7345 16.3297 24.7345C16.8896 24.7345 17.3981 24.9459 17.7809 25.2973L21.6375 29.0882L27.0567 20.8179H27.0596C27.4624 20.318 28.0823 19.998 28.7793 19.998C29.6335 19.998 30.3734 20.4808 30.7419 21.1864L36.981 31.2993C37.0124 31.3478 37.0381 31.3992 37.0638 31.4506L37.0639 31.4507L37.0724 31.4621H37.0696C37.2067 31.7478 37.2838 32.0649 37.2838 32.402Z" fill="#ED0A34"/>
</svg>
