<svg width="48" height="48" viewBox="0 0 48 48" fill="none" xmlns="http://www.w3.org/2000/svg">
<path fill-rule="evenodd" clip-rule="evenodd" d="M8 4C5.79086 4 4 5.79086 4 8V40C4 42.2091 5.79086 44 8 44H40C42.2091 44 44 42.2091 44 40V8C44 5.79086 42.2091 4 40 4H8ZM19.6485 30.2799C19.8434 30.4133 20.154 30.48 20.5803 30.48H23.8324C24.7337 30.48 25.5619 30.3163 26.3171 29.9887C27.0844 29.6612 27.7543 29.2124 28.3268 28.6423C28.8993 28.06 29.3438 27.3808 29.6605 26.6044C29.9772 25.816 30.1355 24.9668 30.1355 24.0571C30.1355 23.1595 29.9772 22.3285 29.6605 21.5643C29.3438 20.8001 28.8993 20.133 28.3268 19.5628C27.7543 18.9927 27.0905 18.55 26.3354 18.2346C25.5802 17.9192 24.7641 17.7615 23.8872 17.7615H20.5986C20.1479 17.7494 19.8251 17.81 19.6303 17.9435C19.4354 18.0769 19.3136 18.2528 19.2649 18.4711C19.2161 18.6774 19.1918 18.8957 19.1918 19.1262V29.079C19.1918 29.3216 19.2222 29.552 19.2831 29.7704C19.344 29.9766 19.4658 30.1464 19.6485 30.2799ZM21.9688 27.6962H23.8872C24.5449 27.6962 25.1356 27.5445 25.6594 27.2413C26.1831 26.9259 26.5972 26.5013 26.9017 25.9676C27.2062 25.4339 27.3585 24.8213 27.3585 24.1299C27.3585 23.4385 27.2062 22.8198 26.9017 22.274C26.5972 21.7281 26.1831 21.3036 25.6594 21.0003C25.1356 20.6849 24.5388 20.5272 23.8689 20.5272H21.9688V27.6962ZM8.82023 30.2799C9.01511 30.4133 9.33789 30.48 9.78855 30.48C10.2392 30.48 10.562 30.4133 10.7569 30.2799C10.9517 30.1464 11.0735 29.9766 11.1223 29.7704C11.171 29.552 11.1953 29.3276 11.1953 29.0972V26.7136H13.5339C14.0455 26.7136 14.5631 26.6226 15.0869 26.4407C15.6106 26.2466 16.0917 25.9676 16.5302 25.6037C16.9809 25.2276 17.3402 24.7606 17.6081 24.2026C17.8883 23.6446 18.0283 22.9957 18.0283 22.2558C18.0283 21.5037 17.8883 20.8487 17.6081 20.2907C17.3402 19.7327 16.9809 19.2657 16.5302 18.8896C16.0917 18.5015 15.6106 18.2164 15.0869 18.0345C14.5753 17.8525 14.0637 17.7615 13.5522 17.7615H9.80682C9.35616 17.7615 9.03338 17.8282 8.83851 17.9617C8.64363 18.0951 8.52183 18.271 8.47311 18.4893C8.42438 18.6955 8.40002 18.9139 8.40002 19.1444V29.079C8.40002 29.3095 8.42438 29.5338 8.47311 29.7522C8.52183 29.9705 8.63753 30.1464 8.82023 30.2799ZM11.1953 23.9479H13.5521C13.8201 23.9479 14.082 23.8933 14.3378 23.7842C14.6057 23.6629 14.825 23.4749 14.9955 23.2201C15.1782 22.9654 15.2695 22.6379 15.2695 22.2376C15.2695 21.8979 15.1965 21.6007 15.0503 21.346C14.9041 21.0913 14.6971 20.8911 14.4291 20.7456C14.1733 20.6 13.8749 20.5272 13.5339 20.5272H11.1953V23.9479ZM31.9988 30.2981C32.1937 30.4194 32.5104 30.48 32.9489 30.48C33.4117 30.48 33.7345 30.4194 33.9172 30.2981C34.1121 30.1646 34.2339 29.9948 34.2826 29.7886C34.3313 29.5703 34.3557 29.3458 34.3557 29.1154V25.2762H38.0828C38.3385 25.2762 38.5578 25.258 38.7405 25.2216C38.9354 25.1852 39.0876 25.0882 39.1972 24.9304C39.3069 24.7606 39.3617 24.4816 39.3617 24.0935C39.3617 23.6932 39.3069 23.4081 39.1972 23.2383C39.0876 23.0685 38.9354 22.9654 38.7405 22.929C38.5578 22.8926 38.3446 22.8744 38.101 22.8744H34.3557V20.5272H37.9532C38.1968 20.5272 38.4222 20.509 38.6292 20.4726C38.8485 20.4241 39.0251 20.3028 39.159 20.1087C39.293 19.9146 39.36 19.5992 39.36 19.1626C39.36 18.7016 39.293 18.3741 39.159 18.18C39.0373 17.9859 38.8728 17.8707 38.6658 17.8343C38.4587 17.7858 38.2334 17.7615 37.9898 17.7615H33.0037C32.4678 17.7615 32.0963 17.8586 31.8892 18.0527C31.6822 18.2467 31.5786 18.6106 31.5786 19.1444V29.0972C31.5786 29.3276 31.5969 29.552 31.6334 29.7704C31.6822 29.9887 31.804 30.1646 31.9988 30.2981Z" fill="#ED0A34"/>
</svg>
