<svg width="24" height="24" viewBox="0 0 24 24" fill="none" xmlns="http://www.w3.org/2000/svg">
<path fill-rule="evenodd" clip-rule="evenodd" d="M23 5C23 7.76142 20.7614 10 18 10C15.2386 10 13 7.76142 13 5C13 2.23858 15.2386 0 18 0C19.5032 0 20.8515 0.663372 21.7681 1.71334L17.8338 5.33281L15.8341 3.33312L14.5 4.66625L17.8338 8L22.7001 3.29029C22.8941 3.82371 23 4.39949 23 5ZM22 11L21.5131 9.86452C20.9747 10.254 20.3692 10.5563 19.7171 10.7507L19.824 11H4.177L6.32 6H12.083C12.0284 5.67479 12 5.34071 12 5C12 4.65929 12.0284 4.32521 12.083 4H6.32C5.92832 3.99965 5.54515 4.11432 5.21805 4.32978C4.89096 4.54524 4.63432 4.852 4.48 5.212L2 11V21C2 21.2652 2.10536 21.5196 2.29289 21.7071C2.48043 21.8946 2.73478 22 3 22H4C4.26522 22 4.51957 21.8946 4.70711 21.7071C4.89464 21.5196 5 21.2652 5 21V20H19V21C19 21.2652 19.1054 21.5196 19.2929 21.7071C19.4804 21.8946 19.7348 22 20 22H21C21.2652 22 21.5196 21.8946 21.7071 21.7071C21.8946 21.5196 22 21.2652 22 21V11ZM4 13V18H20V13H4ZM6.5 17C6.10218 17 5.72064 16.842 5.43934 16.5607C5.15804 16.2794 5 15.8978 5 15.5C5 15.1022 5.15804 14.7206 5.43934 14.4393C5.72064 14.158 6.10218 14 6.5 14C6.89782 14 7.27936 14.158 7.56066 14.4393C7.84196 14.7206 8 15.1022 8 15.5C8 15.8978 7.84196 16.2794 7.56066 16.5607C7.27936 16.842 6.89782 17 6.5 17ZM17.5 17C17.1022 17 16.7206 16.842 16.4393 16.5607C16.158 16.2794 16 15.8978 16 15.5C16 15.1022 16.158 14.7206 16.4393 14.4393C16.7206 14.158 17.1022 14 17.5 14C17.8978 14 18.2794 14.158 18.5607 14.4393C18.842 14.7206 19 15.1022 19 15.5C19 15.8978 18.842 16.2794 18.5607 16.5607C18.2794 16.842 17.8978 17 17.5 17Z" fill="#E19292"/>
</svg>
