<svg width="24" height="24" viewBox="0 0 24 24" fill="none" xmlns="http://www.w3.org/2000/svg">
<path fill-rule="evenodd" clip-rule="evenodd" d="M2 12C2 17.523 6.477 22 12 22C17.523 22 22 17.523 22 12C22 6.477 17.523 2 12 2C6.477 2 2 6.477 2 12ZM17.6569 17.6569C16.1566 19.1571 14.1217 20 12 20C9.87827 20 7.84344 19.1571 6.34315 17.6569C4.84285 16.1566 4 14.1217 4 12C4 9.87827 4.84285 7.84344 6.34315 6.34315C7.84344 4.84285 9.87827 4 12 4C14.1217 4 16.1566 4.84285 17.6569 6.34315C19.1571 7.84344 20 9.87827 20 12C20 14.1217 19.1571 16.1566 17.6569 17.6569ZM8 12.13V13.4875H9.1025V14.65H8V15.91H9.1025V17.5H10.67V15.91H14.2025V14.65H10.67V13.4875H13.1675C13.2275 13.4875 13.3325 13.485 13.4825 13.48C13.6375 13.475 13.8075 13.4575 13.9925 13.4275C14.8925 13.2925 15.57 12.9325 16.025 12.3475C16.48 11.7575 16.7075 11.025 16.7075 10.15C16.7075 9.57001 16.6075 9.04251 16.4075 8.56751C16.2075 8.08751 15.905 7.69001 15.5 7.37501C15.1 7.06001 14.5975 6.85501 13.9925 6.76001C13.8075 6.73001 13.6375 6.71251 13.4825 6.70751C13.3325 6.70251 13.2275 6.70001 13.1675 6.70001H10.67H10.1675H9.1025V12.13H8ZM10.67 12.13H13.1075C13.1875 12.13 13.285 12.1275 13.4 12.1225C13.52 12.1125 13.6475 12.0875 13.7825 12.0475C14.2425 11.9325 14.5775 11.705 14.7875 11.365C15.0025 11.025 15.11 10.6325 15.11 10.1875C15.11 9.91251 15.065 9.64251 14.975 9.37751C14.89 9.10751 14.75 8.87251 14.555 8.67251C14.365 8.46751 14.1075 8.32751 13.7825 8.25251C13.6575 8.21751 13.53 8.19751 13.4 8.19251C13.27 8.18251 13.1725 8.17751 13.1075 8.17751H10.67V12.13Z" fill="#E19292"/>
</svg>
