<svg xmlns="http://www.w3.org/2000/svg" width="143" height="40" viewBox="0 0 143 40" fill="none">
<rect width="143" height="40" fill="white"/>
<path fill-rule="evenodd" clip-rule="evenodd" d="M16.3005 37.0096C10.1727 31.088 7.1088 28.1272 7.10867 28.1273L1.11559 34.0489C0.499088 34.8611 0.658384 36.0187 1.47139 36.6346C1.79257 36.8779 2.18459 37.0096 2.58767 37.0096C2.59772 37.0096 2.60778 37.0096 2.61784 37.0096C7.17872 37.0096 11.7396 37.0096 16.3005 37.0096Z" fill="#FF4F12"/>
<path fill-rule="evenodd" clip-rule="evenodd" d="M22.228 13.3235L8.89119 0L1.44503 7.74867C0.51779 8.71358 0 9.99934 0 11.3369L0 34.0489C0 35.684 1.32691 37.0096 2.96373 37.0096C1.94967 37.0096 1.12761 36.1884 1.12761 35.1753C1.12761 34.6876 1.32201 34.22 1.66786 33.8758" fill="#7B61FF"/>
<path fill-rule="evenodd" clip-rule="evenodd" d="M117.269 23.0749H114.062L110.231 26.9452V23.0749H107.519V33.7399H110.231V29.332L114.127 33.7399H117.399L112.362 28.0203L117.269 23.0749Z" fill="#09121F"/>
<path fill-rule="evenodd" clip-rule="evenodd" d="M31.2092 25.8436H27.2918V21.1131H31.2092C33.1893 21.1131 34.0934 22.0591 34.0934 23.4783C34.0934 24.8974 33.1893 25.8436 31.2092 25.8436ZM31.2952 18.5758H24.4508V33.6273H27.2918V28.3807H31.2952C34.696 28.3807 36.9345 26.6392 36.9345 23.4783C36.9345 20.3174 34.696 18.5758 31.2952 18.5758Z" fill="#09121F"/>
<path fill-rule="evenodd" clip-rule="evenodd" d="M43.3475 31.5037C41.7549 31.5037 40.2696 30.364 40.2696 28.4072C40.2696 26.4506 41.7549 25.3111 43.3475 25.3111C44.9403 25.3111 46.4253 26.4506 46.4253 28.4072C46.4253 30.364 44.9403 31.5037 43.3475 31.5037ZM43.3475 22.7738C40.4203 22.7738 37.5145 24.6661 37.5145 28.4072C37.5145 32.1489 40.4203 34.0408 43.3475 34.0408C46.2748 34.0408 49.1805 32.1489 49.1805 28.4072C49.1805 24.6661 46.2748 22.7738 43.3475 22.7738Z" fill="#09121F"/>
<path fill-rule="evenodd" clip-rule="evenodd" d="M56.1043 31.5037C54.4685 31.5037 53.2632 30.321 53.2632 28.4072C53.2632 26.5151 54.5115 25.3111 56.1043 25.3111C57.0729 25.3111 57.9123 25.7626 58.5795 26.7732L60.904 25.44C60.1293 23.7842 58.4503 22.7738 56.1258 22.7738C53.091 22.7738 50.5081 25.01 50.5081 28.4072C50.5081 31.8046 52.9619 34.0408 56.1258 34.0408C58.4073 34.0408 59.9354 33.0089 61.0117 31.1813L58.7733 29.9556C58.1276 30.8586 57.4387 31.5037 56.1043 31.5037Z" fill="#09121F"/>
<path fill-rule="evenodd" clip-rule="evenodd" d="M84.9801 29.1171C84.851 30.7511 84.5277 31.1168 83.9681 31.1168C83.5858 31.1168 83.406 31.0744 83.1443 31.0059L83.1579 33.766C83.1579 33.766 83.495 33.8688 84.1192 33.8688C86.4221 33.8688 87.2831 32.3852 87.4985 29.2245L87.7567 25.5047H90.8129V33.7185H93.525V23.0749H85.432L84.9801 29.1171Z" fill="#09121F"/>
<path fill-rule="evenodd" clip-rule="evenodd" d="M74.3174 26.9883C74.7049 25.7842 75.781 24.838 77.2016 24.838C78.7083 24.838 79.72 25.6551 79.9782 26.9883H74.3174ZM77.2878 22.7739C74.1884 22.7739 71.67 25.0316 71.67 28.4073C71.67 31.7832 74.1884 34.0409 77.1586 34.0409C79.5047 34.0409 80.9898 33.1594 82.0659 31.3317L79.9135 30.2567C79.2463 31.0952 78.6436 31.7186 77.2016 31.7186C75.609 31.7186 74.4466 30.6867 74.2744 29.0525H82.4964V28.1064C82.4964 24.9886 80.3441 22.7739 77.2878 22.7739Z" fill="#09121F"/>
<path fill-rule="evenodd" clip-rule="evenodd" d="M97.6906 26.9883C98.078 25.7842 99.1542 24.838 100.575 24.838C102.081 24.838 103.093 25.6551 103.351 26.9883H97.6906ZM100.661 22.7739C97.5614 22.7739 95.0432 25.0316 95.0432 28.4073C95.0432 31.7832 97.5614 34.0409 100.532 34.0409C102.878 34.0409 104.363 33.1594 105.439 31.3317L103.287 30.2567C102.619 31.0952 102.017 31.7186 100.575 31.7186C98.9819 31.7186 97.8196 30.6867 97.6476 29.0525H105.87V28.1064C105.87 24.9886 103.717 22.7739 100.661 22.7739Z" fill="#09121F"/>
<path fill-rule="evenodd" clip-rule="evenodd" d="M61.8553 25.44H65.0409V33.7399H67.7526V25.44H70.9384V23.0749H61.8553V25.44Z" fill="#09121F"/>
<path fill-rule="evenodd" clip-rule="evenodd" d="M122.783 31.5038C121.19 31.5038 119.705 30.3641 119.705 28.4073C119.705 26.4507 121.19 25.3112 122.783 25.3112C124.376 25.3112 125.861 26.4507 125.861 28.4073C125.861 30.3641 124.376 31.5038 122.783 31.5038ZM122.783 22.7739C119.856 22.7739 116.95 24.666 116.95 28.4073C116.95 32.1488 119.856 34.0409 122.783 34.0409C125.71 34.0409 128.616 32.1488 128.616 28.4073C128.616 24.666 125.71 22.7739 122.783 22.7739Z" fill="#09121F"/>
<path fill-rule="evenodd" clip-rule="evenodd" d="M139.407 23.0728L136.463 30.5421L133.52 23.0728H129.975V33.7186H132.553V26.979L135.411 33.7186H137.516L140.373 26.979V33.7186H142.952V23.0728H139.407Z" fill="#09121F"/>
</svg>